<svg xmlns="http://www.w3.org/2000/svg" width="44.43" height="53.392" viewBox="0 0 44.43 53.392">
  <g id="Grupo_53758" data-name="Grupo 53758" transform="translate(-1252.488 -717.621)">
    <g id="Grupo_53757" data-name="Grupo 53757">
      <path id="Trazado_100469" data-name="Trazado 100469" d="M1295.78,734.495a2.194,2.194,0,0,0,0-3.1l-1.664-1.663a2.192,2.192,0,0,0-3.1,0l-2.035,2.046A22.107,22.107,0,0,0,1278,726.835v-2.43h1.16a2.262,2.262,0,0,0,2.232-2.232V719.82a2.243,2.243,0,0,0-2.232-2.2h-8.886a2.243,2.243,0,0,0-2.233,2.2v2.353a2.271,2.271,0,0,0,2.233,2.232h1.16v2.43a22.21,22.21,0,1,0,25.487,21.974,21.986,21.986,0,0,0-3.5-11.95Zm-3.218-3.206,1.664,1.663-2.091,2.09c-.492-.612-1.006-1.2-1.565-1.773Zm-22.678-9.469v-1.615a.488.488,0,0,1,.488-.488h8.684a.489.489,0,0,1,.488.488v1.615a.489.489,0,0,1-.488.489h-8.684A.488.488,0,0,1,1269.884,721.82Zm3.735,2.585h2.189v2.222c-.438-.022-.744-.022-1.094-.022s-.657.011-1.095.022Zm1.095,44.925a20.527,20.527,0,1,1,20.521-20.521A20.545,20.545,0,0,1,1274.714,769.33Z" fill="#39a900"/>
      <path id="Trazado_100470" data-name="Trazado 100470" d="M1274.713,731.161h-.206a17.664,17.664,0,0,0-17.431,17.258,1.074,1.074,0,0,0-.119.487,1.017,1.017,0,0,0,.13.509,17.659,17.659,0,0,0,17.366,17.02.7.7,0,0,0,.152.011.516.516,0,0,0,.13-.011,17.637,17.637,0,0,0-.022-35.274Zm.986,33.253v-2.036a1.094,1.094,0,0,0-2.189,0V764.4a15.655,15.655,0,0,1-14.39-14.39h1.915a1.095,1.095,0,0,0,0-2.189H1259.1a15.669,15.669,0,0,1,14.412-14.62v2.035a1.094,1.094,0,1,0,2.189,0v-2.046a15.673,15.673,0,0,1,14.631,14.631h-2.156a1.095,1.095,0,0,0,0,2.189h2.134A15.659,15.659,0,0,1,1275.7,764.414Z" fill="#39a900"/>
      <path id="Trazado_100471" data-name="Trazado 100471" d="M1280.94,747.933h-5.132V740.7a1.094,1.094,0,1,0-2.189,0v8.339a1.06,1.06,0,0,0,1.062,1.083h6.249a1.095,1.095,0,0,0,.01-2.189Z" fill="#39a900"/>
    </g>
  </g>
</svg>
