<svg id="Grupo_53797" data-name="Grupo 53797" xmlns="http://www.w3.org/2000/svg" width="52.101" height="54.283" viewBox="0 0 52.101 54.283">
  <g id="Grupo_53796" data-name="Grupo 53796">
    <path id="Trazado_100553" data-name="Trazado 100553" d="M1193.012,134.92h-2.13v5.4h-2.311l3.44,5.112,3.44-5.112h-2.44Z" transform="translate(-1151.796 -97.918)" fill="#fff"/>
    <g id="Grupo_53794" data-name="Grupo 53794" transform="translate(2 2)">
      <path id="Trazado_100554" data-name="Trazado 100554" d="M1192.011,128.43a11.787,11.787,0,0,1,5.1,1.166V110.4a4.339,4.339,0,0,0-1.279-3.088l-6.116-6.116a4.339,4.339,0,0,0-3.087-1.279h0l-23.884,0a1.949,1.949,0,0,0-1.945,1.946v4.144h21.411a2.824,2.824,0,0,1,2.822,2.821V121.4a2.825,2.825,0,0,1-2.822,2.821H1160.8v21.033a1.947,1.947,0,0,0,1.946,1.945h19.594a11.865,11.865,0,0,1,9.672-18.767Z" transform="translate(-1153.796 -99.918)" fill="#fff"/>
      <path id="Trazado_100555" data-name="Trazado 100555" d="M1182.21,108.013h-27.592a.822.822,0,0,0-.822.821V121.4a.822.822,0,0,0,.822.821h27.592a.822.822,0,0,0,.822-.821V108.834A.822.822,0,0,0,1182.21,108.013Z" transform="translate(-1153.796 -99.918)" fill="#fff"/>
      <path id="Trazado_100556" data-name="Trazado 100556" d="M1199.111,133.453a9.845,9.845,0,1,0,2.786,6.862A9.9,9.9,0,0,0,1199.111,133.453Zm-2,7.034a1.157,1.157,0,0,1-.1.209l-4,5.944a1.2,1.2,0,0,1-1.994,0l-4-5.944a1.2,1.2,0,0,1,1-1.873h1.371v-4.2a1.2,1.2,0,0,1,1.2-1.2h2.726a1.2,1.2,0,0,1,1.2,1.2v4.2h1.5a1.2,1.2,0,0,1,1.061.637,1.031,1.031,0,0,1,.039.106A1.182,1.182,0,0,1,1197.111,140.487Z" transform="translate(-1153.796 -99.918)" fill="#fff"/>
    </g>
    <g id="Grupo_53795" data-name="Grupo 53795">
      <path id="Trazado_100557" data-name="Trazado 100557" d="M1199.111,130.806V110.4a6.325,6.325,0,0,0-1.865-4.5l-6.115-6.116a6.326,6.326,0,0,0-4.5-1.865h0l-23.883,0a3.951,3.951,0,0,0-3.945,3.946v4.144h-4.181a2.824,2.824,0,0,0-2.822,2.821V121.4a2.825,2.825,0,0,0,2.822,2.821h4.181v21.033a3.95,3.95,0,0,0,3.946,3.945h21.4a11.868,11.868,0,1,0,14.971-18.391Zm-7.1,19.4a9.95,9.95,0,1,1,4.313-1A9.8,9.8,0,0,1,1192.011,150.2ZM1153.8,121.4V108.834a.822.822,0,0,1,.822-.821h27.592a.822.822,0,0,1,.822.821V121.4a.822.822,0,0,1-.822.821h-27.592A.822.822,0,0,1,1153.8,121.4Zm8.949,25.8a1.947,1.947,0,0,1-1.946-1.945V124.219h21.411a2.825,2.825,0,0,0,2.822-2.821V108.834a2.824,2.824,0,0,0-2.822-2.821H1160.8v-4.144a1.949,1.949,0,0,1,1.945-1.946l23.884,0h0a4.339,4.339,0,0,1,3.087,1.279l6.116,6.116a4.339,4.339,0,0,1,1.279,3.088V129.6a11.863,11.863,0,0,0-14.772,17.6Z" transform="translate(-1151.796 -97.918)" fill="#39a900"/>
      <path id="Trazado_100558" data-name="Trazado 100558" d="M1197.072,139.46a1.2,1.2,0,0,0-1.061-.637h-1.5v-4.2a1.2,1.2,0,0,0-1.2-1.2h-2.726a1.2,1.2,0,0,0-1.2,1.2v4.2h-1.371a1.2,1.2,0,0,0-1,1.873l4,5.944a1.2,1.2,0,0,0,1.994,0l4-5.944a1.157,1.157,0,0,0,.1-.209,1.182,1.182,0,0,0,0-.921A1.031,1.031,0,0,0,1197.072,139.46Zm-5.061,5.975-3.44-5.112h2.311v-5.4h2.13v5.4h2.44Z" transform="translate(-1151.796 -97.918)" fill="#39a900"/>
    </g>
  </g>
  <path id="Trazado_100559" data-name="Trazado 100559" d="M5.03,7.588V10H3.316V2.891H6.153a3.3,3.3,0,0,1,1.443.3,2.263,2.263,0,0,1,.972.854A2.334,2.334,0,0,1,8.912,5.3a2.057,2.057,0,0,1-.745,1.663,3.09,3.09,0,0,1-2.043.623Zm0-1.323H6.153a1.059,1.059,0,0,0,.759-.249.925.925,0,0,0,.261-.7,1.144,1.144,0,0,0-.269-.8.951.951,0,0,0-.732-.3H5.03ZM9.825,10V2.891h2.29a3.369,3.369,0,0,1,1.694.427,3,3,0,0,1,1.174,1.206,3.641,3.641,0,0,1,.427,1.746V6.6A3.662,3.662,0,0,1,15,8.347a3.016,3.016,0,0,1-1.162,1.211A3.3,3.3,0,0,1,12.164,10Zm1.714-5.786V8.682h.6a1.333,1.333,0,0,0,1.133-.525,2.572,2.572,0,0,0,.4-1.56V6.289a2.551,2.551,0,0,0-.4-1.553,1.356,1.356,0,0,0-1.152-.522Zm9.229,2.954H18V10H16.29V2.891h4.756V4.214H18V5.85h2.764Z" transform="translate(5.005 11)" fill="#39a900"/>
</svg>
