<svg xmlns="http://www.w3.org/2000/svg" width="53.392" height="53.392" viewBox="0 0 53.392 53.392">
  <g id="Grupo_53766" data-name="Grupo 53766" transform="translate(-1053.019 -721.535)">
    <g id="Grupo_53765" data-name="Grupo 53765">
      <path id="Trazado_100484" data-name="Trazado 100484" d="M1083.886,751.359a1.043,1.043,0,1,0-1.043-1.042A1.043,1.043,0,0,0,1083.886,751.359Z" fill="#39a900"/>
      <path id="Trazado_100485" data-name="Trazado 100485" d="M1060.944,751.359a1.043,1.043,0,1,0-1.043-1.042A1.043,1.043,0,0,0,1060.944,751.359Z" fill="#39a900"/>
      <path id="Trazado_100486" data-name="Trazado 100486" d="M1054.062,734.674a1.041,1.041,0,0,0,1.042-1.042V723.621h10.011a1.043,1.043,0,0,0,0-2.086h-11.053a1.043,1.043,0,0,0-1.043,1.043v11.054A1.042,1.042,0,0,0,1054.062,734.674Z" fill="#39a900"/>
      <path id="Trazado_100487" data-name="Trazado 100487" d="M1066.158,773.884a1.043,1.043,0,0,0-1.043-1.043H1055.1V762.83a1.042,1.042,0,1,0-2.085,0v11.054a1.043,1.043,0,0,0,1.043,1.043h11.053A1.043,1.043,0,0,0,1066.158,773.884Z" fill="#39a900"/>
      <path id="Trazado_100488" data-name="Trazado 100488" d="M1105.368,761.787a1.043,1.043,0,0,0-1.043,1.043v10.011h-10.011a1.043,1.043,0,0,0,0,2.086h11.054a1.043,1.043,0,0,0,1.043-1.043V762.83A1.043,1.043,0,0,0,1105.368,761.787Z" fill="#39a900"/>
      <path id="Trazado_100489" data-name="Trazado 100489" d="M1105.368,721.535h-11.054a1.043,1.043,0,0,0,0,2.086h10.011v10.011a1.043,1.043,0,0,0,2.086,0V722.578A1.043,1.043,0,0,0,1105.368,721.535Z" fill="#39a900"/>
      <path id="Trazado_100490" data-name="Trazado 100490" d="M1059.9,767a1.042,1.042,0,0,0,1.043,1.042h10.428a1.042,1.042,0,0,0,1.043-1.042V756.573a1.042,1.042,0,0,0-1.043-1.042h-10.428a1.042,1.042,0,0,0-1.043,1.042Zm2.086-9.386h8.343v8.343h-8.343Z" fill="#39a900"/>
      <path id="Trazado_100491" data-name="Trazado 100491" d="M1071.372,728.417h-10.428a1.043,1.043,0,0,0-1.043,1.043v10.428a1.043,1.043,0,0,0,1.043,1.043h10.428a1.043,1.043,0,0,0,1.043-1.043V729.46A1.043,1.043,0,0,0,1071.372,728.417Zm-1.042,10.429h-8.343V730.5h8.343Z" fill="#39a900"/>
      <path id="Trazado_100492" data-name="Trazado 100492" d="M1099.528,729.46a1.043,1.043,0,0,0-1.043-1.043h-10.428a1.042,1.042,0,0,0-1.042,1.043v10.428a1.042,1.042,0,0,0,1.042,1.043h10.428a1.043,1.043,0,0,0,1.043-1.043Zm-2.085,9.386H1089.1V730.5h8.343Z" fill="#39a900"/>
      <path id="Trazado_100493" data-name="Trazado 100493" d="M1099.528,767V756.573a1.042,1.042,0,0,0-1.043-1.042h-10.428a1.041,1.041,0,0,0-1.042,1.042V767a1.041,1.041,0,0,0,1.042,1.042h10.428A1.042,1.042,0,0,0,1099.528,767Zm-2.085-1.043H1089.1v-8.343h8.343Z" fill="#39a900"/>
      <path id="Trazado_100494" data-name="Trazado 100494" d="M1067.2,759.7h-2.086a1.042,1.042,0,0,0-1.042,1.043v2.085a1.042,1.042,0,0,0,1.042,1.043h2.086a1.043,1.043,0,0,0,1.043-1.043v-2.085A1.043,1.043,0,0,0,1067.2,759.7Z" fill="#39a900"/>
      <path id="Trazado_100495" data-name="Trazado 100495" d="M1065.115,736.76h2.086a1.043,1.043,0,0,0,1.043-1.043v-2.085a1.043,1.043,0,0,0-1.043-1.043h-2.086a1.042,1.042,0,0,0-1.042,1.043v2.085A1.042,1.042,0,0,0,1065.115,736.76Z" fill="#39a900"/>
      <path id="Trazado_100496" data-name="Trazado 100496" d="M1092.229,736.76h2.085a1.043,1.043,0,0,0,1.043-1.043v-2.085a1.043,1.043,0,0,0-1.043-1.043h-2.085a1.043,1.043,0,0,0-1.043,1.043v2.085A1.043,1.043,0,0,0,1092.229,736.76Z" fill="#39a900"/>
      <path id="Trazado_100497" data-name="Trazado 100497" d="M1092.229,763.873h2.085a1.043,1.043,0,0,0,1.043-1.043v-2.085a1.043,1.043,0,0,0-1.043-1.043h-2.085a1.043,1.043,0,0,0-1.043,1.043v2.085A1.043,1.043,0,0,0,1092.229,763.873Z" fill="#39a900"/>
      <path id="Trazado_100498" data-name="Trazado 100498" d="M1064.073,750.317a1.041,1.041,0,0,0,1.042,1.042h13.557v5.214a1.043,1.043,0,1,0,2.086,0v-6.256a1.043,1.043,0,0,0-1.043-1.043h-14.6A1.042,1.042,0,0,0,1064.073,750.317Z" fill="#39a900"/>
      <path id="Trazado_100499" data-name="Trazado 100499" d="M1071.372,747.188a1.043,1.043,0,1,0,0-2.086h-10.428a1.043,1.043,0,0,0,0,2.086Z" fill="#39a900"/>
      <path id="Trazado_100500" data-name="Trazado 100500" d="M1075.544,747.188h4.171a1.043,1.043,0,1,0,0-2.086h-4.171a1.043,1.043,0,0,0,0,2.086Z" fill="#39a900"/>
      <path id="Trazado_100501" data-name="Trazado 100501" d="M1075.544,728.417a1.043,1.043,0,0,0-1.043,1.043v10.428a1.043,1.043,0,0,0,1.043,1.043h7.3v5.214a1.043,1.043,0,0,0,1.043,1.043h4.171a1.043,1.043,0,0,0,0-2.086h-3.128v-5.214a1.042,1.042,0,0,0-1.043-1.042h-7.3V729.46A1.042,1.042,0,0,0,1075.544,728.417Z" fill="#39a900"/>
      <path id="Trazado_100502" data-name="Trazado 100502" d="M1098.485,745.1h-6.256a1.043,1.043,0,0,0,0,2.086h6.256a1.043,1.043,0,0,0,0-2.086Z" fill="#39a900"/>
      <path id="Trazado_100503" data-name="Trazado 100503" d="M1098.485,749.274h-10.428a1.043,1.043,0,0,0,0,2.085h10.428a1.043,1.043,0,1,0,0-2.085Z" fill="#39a900"/>
      <path id="Trazado_100504" data-name="Trazado 100504" d="M1079.715,759.7h-4.171a1.043,1.043,0,0,0-1.043,1.043V767a1.043,1.043,0,0,0,2.085,0v-5.215h3.129a1.042,1.042,0,1,0,0-2.085Z" fill="#39a900"/>
      <path id="Trazado_100505" data-name="Trazado 100505" d="M1082.843,765.959h-3.128a1.043,1.043,0,1,0,0,2.085h4.171a1.042,1.042,0,0,0,1.043-1.042V754.488a1.043,1.043,0,0,0-2.086,0Z" fill="#39a900"/>
      <path id="Trazado_100506" data-name="Trazado 100506" d="M1083.886,736.76a1.043,1.043,0,0,0,1.043-1.043V729.46a1.043,1.043,0,1,0-2.086,0v5.214h-3.128a1.043,1.043,0,0,0,0,2.086Z" fill="#39a900"/>
    </g>
  </g>
</svg>
