<svg xmlns="http://www.w3.org/2000/svg" width="62.736" height="50.512" viewBox="0 0 62.736 50.512">
  <g id="Grupo_53770" data-name="Grupo 53770" transform="translate(-1619.573 -723.828)">
    <g id="Grupo_53769" data-name="Grupo 53769">
      <path id="Trazado_100507" data-name="Trazado 100507" d="M1673.073,769.3h-2.05a.919.919,0,0,0,0,1.838h2.05a.919.919,0,0,0,0-1.838Z" fill="#39a900"/>
      <path id="Trazado_100508" data-name="Trazado 100508" d="M1650.871,734.772a14.625,14.625,0,0,0-10.409,4.312.919.919,0,0,0,1.3,1.3,12.882,12.882,0,0,1,18.22,0,.919.919,0,0,0,1.3-1.3,14.628,14.628,0,0,0-10.41-4.312Z" fill="#39a900"/>
      <path id="Trazado_100509" data-name="Trazado 100509" d="M1658.147,743.518a.919.919,0,0,0,0-1.3,10.3,10.3,0,0,0-14.552,0,.919.919,0,0,0,1.3,1.3,8.461,8.461,0,0,1,11.953,0A.92.92,0,0,0,1658.147,743.518Z" fill="#39a900"/>
      <path id="Trazado_100510" data-name="Trazado 100510" d="M1646.729,745.351a.919.919,0,0,0,1.3,1.3,4.025,4.025,0,0,1,5.686,0,.919.919,0,1,0,1.3-1.3A5.865,5.865,0,0,0,1646.729,745.351Z" fill="#39a900"/>
      <path id="Trazado_100511" data-name="Trazado 100511" d="M1658.388,756.49a.919.919,0,1,0,0-1.838h-28.609V729.98H1672.1v8.843a.919.919,0,1,0,1.837,0V729.9a1.761,1.761,0,0,0-1.759-1.759H1629.7a1.761,1.761,0,0,0-1.76,1.759v24.83a1.761,1.761,0,0,0,1.76,1.759Z" fill="#39a900"/>
      <path id="Trazado_100512" data-name="Trazado 100512" d="M1679.479,742.207h-1.227V727.933a4.109,4.109,0,0,0-4.1-4.1h-46.416a4.11,4.11,0,0,0-4.105,4.1v31.033h-1.612a2.444,2.444,0,0,0-2.442,2.441,6.775,6.775,0,0,0,6.767,6.767h35.446v3.336a2.833,2.833,0,0,0,2.83,2.83h14.863a2.832,2.832,0,0,0,2.83-2.83V745.036a2.832,2.832,0,0,0-2.83-2.829Zm-54.014-14.274a2.27,2.27,0,0,1,2.267-2.267h46.416a2.269,2.269,0,0,1,2.266,2.267v14.274h-11.8a2.833,2.833,0,0,0-2.83,2.829v13.93h-36.321V727.933Zm16.616,32.871h15.512v.924a.925.925,0,0,1-.924.923h-13.664a.925.925,0,0,1-.924-.923Zm-15.741,5.532a4.934,4.934,0,0,1-4.929-4.929.6.6,0,0,1,.6-.6h18.228v.923a2.765,2.765,0,0,0,2.762,2.762h13.664a2.765,2.765,0,0,0,2.762-2.762V760.8h2.355v5.532Zm54.131,5.174a.993.993,0,0,1-.992.992h-14.863a.993.993,0,0,1-.992-.992V745.036a.993.993,0,0,1,.992-.992h14.863a.993.993,0,0,1,.992.992V771.51Z" fill="#39a900"/>
      <path id="Trazado_100513" data-name="Trazado 100513" d="M1677.3,745.567h-10.508a1.648,1.648,0,0,0-1.647,1.647v19.031a1.648,1.648,0,0,0,1.647,1.647H1677.3a1.648,1.648,0,0,0,1.646-1.647V747.214a1.648,1.648,0,0,0-1.646-1.647Zm-.191,20.487h-10.126V747.405h10.126Z" fill="#39a900"/>
    </g>
  </g>
</svg>
