<svg xmlns="http://www.w3.org/2000/svg" width="97.884" height="95.853" viewBox="0 0 97.884 95.853">
  <g id="Grupo_53780" data-name="Grupo 53780" transform="translate(-1686.071)">
    <rect id="Rectángulo_5142" data-name="Rectángulo 5142" width="97.884" height="95.853" transform="translate(1686.071)" fill="#39a900"/>
    <g id="Grupo_53779" data-name="Grupo 53779" transform="translate(1701.079 15.008)">
      <path id="Trazado_100514" data-name="Trazado 100514" d="M1765.023,30.663a7.5,7.5,0,1,1-7.5-7.5,7.5,7.5,0,0,1,7.5,7.5" transform="translate(-1723.585 -23.159)" fill="#fff"/>
      <path id="Trazado_100515" data-name="Trazado 100515" d="M1720.147,51.855a1,1,0,0,0-.737-.67,4.269,4.269,0,0,0-1.323-.178c-1.128,0-1.627.2-1.627.561,0,1.476,8.979.561,8.979,4.143,0,2.283-3.015,3.39-7.309,3.39-4.121,0-6.81-1.518-6.918-3.3h4.9a1.283,1.283,0,0,0,.846.78,4.145,4.145,0,0,0,1.454.246c1.279,0,2.125-.26,2.125-.725,0-1.49-8.979-.465-8.979-4.225,0-2.092,2.863-3.145,6.767-3.145,4.337,0,6.311,1.395,6.68,3.118Z" transform="translate(-1709.928 -32.162)" fill="#fff"/>
      <path id="Trazado_100516" data-name="Trazado 100516" d="M1736.813,58.98V49.135h12.73v2.3h-7.612v1.409h6.442v2.3h-6.442v1.545h7.916v2.3Z" transform="translate(-1718.939 -32.302)" fill="#fff"/>
      <path id="Trazado_100517" data-name="Trazado 100517" d="M1771.108,54.509l-.2-2.243V49.135h4.9V58.98h-4.793l-5.573-5.36.2,2.243V58.98h-4.9V49.135h4.793Z" transform="translate(-1727.361 -32.302)" fill="#fff"/>
      <path id="Trazado_100518" data-name="Trazado 100518" d="M1786.679,58.984l5.6-9.845h5.2l5.6,9.845h-5.1l-.608-1.3h-5.1l-.586,1.3Zm8.155-6.878-1.584,3.528h3.232Z" transform="translate(-1736.49 -32.303)" fill="#fff"/>
      <path id="Trazado_100519" data-name="Trazado 100519" d="M1796.738,67.638h-31.293l18.215,32.348,4.016-3.5-14.572-24.334,23.779-.059Z" transform="translate(-1729.017 -38.814)" fill="#fff"/>
      <path id="Trazado_100520" data-name="Trazado 100520" d="M1709.376,67.638h31.293l-18.215,32.348-4.016-3.5,14.572-24.334-23.779-.059Z" transform="translate(-1709.231 -38.814)" fill="#fff"/>
      <path id="Trazado_100521" data-name="Trazado 100521" d="M1735.016,105.552l17.08-29.47,17.563,29.181-4.638,2.094-12.538-22.413-13.344,22.68Z" transform="translate(-1718.306 -41.786)" fill="#fff"/>
    </g>
  </g>
</svg>
